#N canvas 618 204 563 581 12;
#X listbox 67 226 22 0 0 0 - - - 0;
#X text 22 38 chord.invert;
#X text 22 88 Invert a chord. Optional int argument to set inversion number.;
#X obj 67 202 chord.invert;
#X msg 67 178 symbol Cmaj7;
#X text 69 259 (first inversion);
#X listbox 347 211 22 0 0 0 - - - 0;
#X msg 347 163 symbol Cmaj7;
#X obj 347 187 chord.invert 2;
#X obj 347 274 chord.invert;
#X msg 347 250 symbol Cmaj7;
#X obj 347 298 chord.invert;
#X listbox 347 322 20 0 0 0 - - - 0;
#X text 337 364 (second inversion);
#X text 22 408 See also:;
#X obj 23 437 chord.pitches;
#X obj 148 437 chord.identify;
#X obj 23 461 chord.notes;
#X obj 23 485 chord.root;
#X text 22 528 Copyright 2025 Federico Ferri (see LICENSE.txt);
#X connect 3 0 0 0;
#X connect 4 0 3 0;
#X connect 7 0 8 0;
#X connect 8 0 6 0;
#X connect 9 0 11 0;
#X connect 10 0 9 0;
#X connect 11 0 12 0;
