#N canvas 618 204 563 581 12;
#X listbox 67 226 22 0 0 0 - - - 0;
#X text 22 408 See also:;
#X obj 148 437 chord.identify;
#X obj 23 437 chord.notes;
#X obj 23 461 chord.root;
#X text 22 38 chord.pitches;
#X text 22 88 Get the pitches of a chord.;
#X obj 67 202 chord.pitches;
#X msg 67 148 symbol Cmin7;
#X msg 184 154 symbol Cmaj6;
#X obj 148 461 chord.invert;
#X text 22 528 Copyright 2025 Federico Ferri (see LICENSE.txt);
#X connect 7 0 0 0;
#X connect 8 0 7 0;
#X connect 9 0 7 0;
