#N canvas 618 204 563 581 12;
#X listbox 72 342 22 0 0 0 - - - 0;
#X text 22 408 See also:;
#X obj 148 437 chord.identify;
#X obj 23 461 chord.root;
#X msg 67 178 symbol Cmin7;
#X msg 184 184 symbol Cmaj6;
#X obj 148 461 chord.invert;
#X text 22 38 chord.notes;
#X obj 72 318 chord.notes;
#X obj 23 437 chord.pitches;
#X text 22 88 Get the notes of a chord. Optional int argument to set the base octave \, can also be set via second (cold) inlet. Default is 4;
#X listbox 302 344 22 0 0 0 - - - 0;
#X obj 302 320 chord.notes 2;
#X msg 302 266 symbol Dbmin7/Fb;
#X msg 153 275 6;
#X msg 119 279 4;
#X text 22 528 Copyright 2025 Federico Ferri (see LICENSE.txt);
#X connect 4 0 8 0;
#X connect 5 0 8 0;
#X connect 8 0 0 0;
#X connect 12 0 11 0;
#X connect 13 0 12 0;
#X connect 14 0 8 1;
#X connect 15 0 8 1;
