#N canvas 678 219 563 520 12;
#X text 22 408 See also:;
#X msg 21 138 symbol P4;
#X msg 38 165 symbol m3;
#X msg 54 192 symbol M3;
#X msg 74 218 symbol d2;
#X listbox 219 324 6 0 0 0 - - - 0;
#X text 22 478 Copyright 2025 Federico Ferri (see LICENSE.txt);
#X text 22 38 interval.quality \, interval.size;
#X text 22 88 Get the quality/size of an interval.;
#X obj 65 274 s \$0.interval;
#X msg 90 244 symbol A5;
#X obj 219 300 interval.quality;
#X obj 219 277 r \$0.interval;
#X obj 359 277 r \$0.interval;
#X obj 359 300 interval.size;
#X floatatom 359 324 5 0 0 0 - - - 0;
#X obj 23 437 musictheory-objects;
#X connect 1 0 9 0;
#X connect 2 0 9 0;
#X connect 3 0 9 0;
#X connect 4 0 9 0;
#X connect 10 0 9 0;
#X connect 11 0 5 0;
#X connect 12 0 11 0;
#X connect 13 0 14 0;
#X connect 14 0 15 0;
