#N canvas 618 204 563 581 12;
#X listbox 65 318 6 0 0 0 - - - 0;
#X text 22 408 See also:;
#X msg 46 156 symbol P4;
#X msg 63 183 symbol m3;
#X msg 79 210 symbol M3;
#X msg 186 140 symbol P1;
#X msg 205 166 symbol d2;
#X msg 224 191 symbol m2;
#X msg 240 217 symbol M2;
#X msg 253 243 symbol A2;
#X listbox 169 326 6 0 0 0 - - - 0;
#X obj 23 437 interval.complement;
#X obj 23 461 interval.reduce;
#X obj 23 485 interval.split;
#X text 22 38 interval.add;
#X text 22 88 Add two intervals together. Second interval can be specified as argument \, or via the second (cold) inlet.;
#X obj 65 264 interval.add;
#X obj 169 302 interval.add P8;
#X text 293 301 intervals can exceed the octave;
#X text 293 324 a.k.a. "compound";
#X obj 23 509 interval.sub;
#X text 22 548 Copyright 2025 Federico Ferri (see LICENSE.txt);
#X connect 2 0 16 0;
#X connect 3 0 16 0;
#X connect 4 0 16 0;
#X connect 5 0 16 1;
#X connect 6 0 16 1;
#X connect 7 0 16 1;
#X connect 8 0 16 1;
#X connect 9 0 16 1;
#X connect 16 0 0 0;
#X connect 16 0 17 0;
#X connect 17 0 10 0;
