#N canvas 618 204 563 581 12;
#X listbox 65 318 6 0 0 0 - - - 0;
#X text 22 408 See also:;
#X msg 188 202 symbol M3;
#X obj 23 485 interval.split;
#X obj 23 509 interval.sub;
#X obj 23 437 interval.add;
#X text 22 38 interval.reduce;
#X text 22 88 Reduce a compound to a simple interval (subtract octave if greater than P8).;
#X obj 65 274 interval.reduce;
#X obj 23 461 interval.complement;
#X msg 50 150 symbol M10;
#X msg 67 177 symbol m13;
#X text 267 203 simple interval passes thru;
#X text 22 548 Copyright 2025 Federico Ferri (see LICENSE.txt);
#X connect 2 0 8 0;
#X connect 8 0 0 0;
#X connect 10 0 8 0;
#X connect 11 0 8 0;
