#N canvas 618 204 563 581 12;
#X listbox 65 318 6 0 0 0 - - - 0;
#X text 22 408 See also:;
#X msg 21 138 symbol P4;
#X msg 38 165 symbol m3;
#X msg 54 192 symbol M3;
#X msg 186 140 symbol P1;
#X msg 205 166 symbol d2;
#X msg 224 191 symbol m2;
#X msg 240 217 symbol M2;
#X msg 253 243 symbol A2;
#X obj 23 461 interval.reduce;
#X obj 23 485 interval.split;
#X obj 23 509 interval.sub;
#X text 22 38 interval.complement;
#X text 22 88 Get the complement of an interval.;
#X obj 65 274 interval.complement;
#X obj 160 312 t a a;
#X obj 236 339 interval.complement;
#X listbox 236 363 6 0 0 0 - - - 0;
#X text 207 316 complement's complement is the interval itself;
#X obj 211 417 interval.add;
#X listbox 211 441 6 0 0 0 - - - 0;
#X text 210 466 interval plus its complement makes the octave;
#X obj 23 437 interval.add;
#X text 22 548 Copyright 2025 Federico Ferri (see LICENSE.txt);
#X connect 2 0 15 0;
#X connect 3 0 15 0;
#X connect 4 0 15 0;
#X connect 5 0 15 0;
#X connect 6 0 15 0;
#X connect 7 0 15 0;
#X connect 8 0 15 0;
#X connect 9 0 15 0;
#X connect 15 0 0 0;
#X connect 15 0 16 0;
#X connect 16 0 20 0;
#X connect 16 1 17 0;
#X connect 17 0 18 0;
#X connect 17 0 20 1;
#X connect 20 0 21 0;
