#N canvas 644 162 613 716 12;
#X text 41 111 pitch class objects:;
#X obj 36 144 pitch.flat;
#X obj 156 144 pitch.sharp;
#X obj 276 144 pitch.natural;
#X obj 406 144 pitch.to_oct 0;
#X text 41 191 note objects:;
#X obj 36 224 note.flat;
#X obj 156 224 note.sharp;
#X obj 276 224 note.natural;
#X obj 36 254 note.pitch;
#X obj 156 254 note.oct;
#X obj 406 224 note.to_oct 0;
#X obj 36 284 note.add;
#X obj 156 284 note.sub;
#X obj 276 284 note.diff;
#X obj 276 254 note.from_midi;
#X obj 406 254 note.to_midi;
#X text 41 331 interval objects:;
#X obj 276 394 interval.split;
#X obj 396 394 interval.reduce;
#X obj 296 364 interval.complement;
#X obj 36 394 interval.add;
#X obj 156 394 interval.sub;
#X obj 36 364 interval.size;
#X obj 156 364 interval.quality;
#X text 41 441 chord objects:;
#X obj 36 474 chord.pitches;
#X obj 156 474 chord.notes;
#X obj 276 474 chord.root;
#X obj 36 504 chord.identify;
#X obj 156 504 chord.invert;
#X text 41 551 scale objects:;
#X obj 36 584 scale.harmonize;
#X text 33 33 musictheory.pd - music theory objects for pd;
#X text 22 658 Copyright 2025 Federico Ferri (see LICENSE.txt);
