#N canvas 670 213 563 581 12;
#X text 22 408 See also:;
#X listbox 203 288 6 0 0 0 - - - 0;
#X msg 46 156 symbol C#4;
#X msg 63 183 symbol Db4;
#X obj 23 437 note.diff;
#X obj 23 461 note.flat;
#X obj 23 485 note.sharp;
#X obj 23 509 note.natural;
#X obj 143 437 note.from_midi;
#X obj 143 461 note.oct;
#X obj 143 485 note.pitch;
#X obj 283 437 note.add;
#X text 22 38 note.flat \, note.sharp \, note.natural;
#X text 22 88 Add or remove alterations to a note;
#X obj 283 509 note.to_oct 0;
#X obj 283 485 note.to_midi;
#X obj 283 461 note.sub;
#X obj 65 264 s \$0.note;
#X msg 83 210 symbol C4;
#X obj 203 264 note.flat;
#X obj 203 240 r \$0.note;
#X listbox 283 288 6 0 0 0 - - - 0;
#X obj 283 240 r \$0.note;
#X listbox 363 288 6 0 0 0 - - - 0;
#X obj 363 240 r \$0.note;
#X obj 283 264 note.sharp;
#X obj 363 264 note.natural;
#X text 22 548 Copyright 2025 Federico Ferri (see LICENSE.txt);
#X connect 2 0 17 0;
#X connect 3 0 17 0;
#X connect 18 0 17 0;
#X connect 19 0 1 0;
#X connect 20 0 19 0;
#X connect 22 0 25 0;
#X connect 24 0 26 0;
#X connect 25 0 21 0;
#X connect 26 0 23 0;
