#N canvas 670 213 563 581 12;
#X text 22 408 See also:;
#X obj 23 437 note.flat;
#X obj 23 461 note.sharp;
#X obj 23 485 note.natural;
#X obj 283 437 note.add;
#X obj 283 509 note.to_oct 0;
#X obj 283 461 note.sub;
#X obj 283 485 note.diff;
#X msg 46 146 symbol C4;
#X msg 253 146 symbol C5;
#X msg 142 146 symbol Dbb4;
#X text 22 38 note.pitch \, note.oct;
#X text 22 88 Extract pitch and octave information from a note;
#X obj 65 254 note.pitch;
#X listbox 65 278 6 0 0 0 - - - 0;
#X obj 185 254 note.oct;
#X floatatom 185 278 5 0 0 0 - - - 0;
#X obj 153 461 note.to_midi;
#X obj 153 485 note.from_midi;
#X text 22 548 Copyright 2025 Federico Ferri (see LICENSE.txt);
#X connect 8 0 13 0;
#X connect 8 0 15 0;
#X connect 9 0 13 0;
#X connect 9 0 15 0;
#X connect 10 0 13 0;
#X connect 10 0 15 0;
#X connect 13 0 14 0;
#X connect 15 0 16 0;
