#N canvas 670 213 563 581 12;
#X text 22 408 See also:;
#X obj 23 437 note.flat;
#X obj 23 461 note.sharp;
#X obj 23 485 note.natural;
#X obj 143 437 note.from_midi;
#X obj 143 461 note.oct;
#X obj 143 485 note.pitch;
#X obj 283 437 note.add;
#X obj 283 509 note.to_oct 0;
#X obj 283 485 note.to_midi;
#X obj 283 461 note.sub;
#X text 22 38 note.diff;
#X text 22 88 Compute the interval between two notes;
#X obj 65 294 note.diff C4;
#X msg 46 156 symbol D#4;
#X msg 63 183 symbol E4;
#X msg 83 210 symbol F#4;
#X msg 93 240 symbol Gb4;
#X listbox 65 318 8 0 0 0 - - - 0;
#X text 22 548 Copyright 2025 Federico Ferri (see LICENSE.txt);
#X connect 13 0 18 0;
#X connect 14 0 13 0;
#X connect 15 0 13 0;
#X connect 16 0 13 0;
#X connect 17 0 13 0;
