#N canvas 670 213 563 523 12;
#X text 22 408 See also:;
#X listbox 203 288 6 0 0 0 - - - 0;
#X msg 46 156 symbol C#4;
#X msg 63 183 symbol Db4;
#X text 22 38 note.flat \, note.sharp \, note.natural;
#X text 22 88 Add or remove alterations to a note;
#X obj 65 264 s \$0.note;
#X msg 83 210 symbol C4;
#X obj 203 264 note.flat;
#X obj 203 240 r \$0.note;
#X listbox 283 288 6 0 0 0 - - - 0;
#X obj 283 240 r \$0.note;
#X listbox 363 288 6 0 0 0 - - - 0;
#X obj 363 240 r \$0.note;
#X obj 283 264 note.sharp;
#X obj 363 264 note.natural;
#X text 22 478 Copyright 2025 Federico Ferri (see LICENSE.txt);
#X obj 23 437 musictheory-objects;
#X connect 2 0 6 0;
#X connect 3 0 6 0;
#X connect 7 0 6 0;
#X connect 8 0 1 0;
#X connect 9 0 8 0;
#X connect 11 0 14 0;
#X connect 13 0 15 0;
#X connect 14 0 10 0;
#X connect 15 0 12 0;
