#N canvas 670 213 563 581 12;
#X text 22 408 See also:;
#X obj 23 437 note.flat;
#X obj 23 461 note.sharp;
#X obj 23 485 note.natural;
#X obj 283 437 note.add;
#X obj 283 461 note.sub;
#X obj 283 485 note.diff;
#X msg 46 146 symbol C4;
#X msg 85 197 symbol C5;
#X msg 67 171 symbol Dbb4;
#X listbox 65 278 6 0 0 0 - - - 0;
#X obj 153 437 note.to_midi;
#X obj 153 461 note.from_midi;
#X text 22 38 note.to_oct;
#X text 22 88 Set the octave to a specific octave;
#X obj 65 254 note.to_oct 2;
#X obj 153 485 note.oct;
#X obj 153 509 note.pitch;
#X text 22 548 Copyright 2025 Federico Ferri (see LICENSE.txt);
#X connect 7 0 15 0;
#X connect 8 0 15 0;
#X connect 9 0 15 0;
#X connect 15 0 10 0;
