#N canvas 670 213 563 581 12;
#X listbox 65 318 6 0 0 0 - - - 0;
#X text 22 408 See also:;
#X msg 186 140 symbol P1;
#X msg 205 166 symbol d2;
#X msg 224 191 symbol m2;
#X msg 240 217 symbol M2;
#X msg 253 243 symbol A2;
#X listbox 169 326 6 0 0 0 - - - 0;
#X msg 46 156 symbol C#4;
#X msg 63 183 symbol Db4;
#X obj 169 302 note.add P8;
#X obj 23 437 note.diff;
#X obj 23 461 note.flat;
#X obj 23 485 note.sharp;
#X obj 23 509 note.natural;
#X obj 143 437 note.from_midi;
#X obj 143 461 note.oct;
#X obj 143 485 note.pitch;
#X obj 283 461 note.to_midi;
#X obj 283 485 note.to_oct 0;
#X text 22 38 note.sub;
#X text 22 88 Subtract an interval from a note. Interval can be specified as argument \, or via the second (cold) inlet.;
#X obj 65 264 note.sub;
#X obj 283 437 note.add;
#X text 22 548 Copyright 2025 Federico Ferri (see LICENSE.txt);
#X connect 2 0 22 1;
#X connect 3 0 22 1;
#X connect 4 0 22 1;
#X connect 5 0 22 1;
#X connect 6 0 22 1;
#X connect 8 0 22 0;
#X connect 9 0 22 0;
#X connect 10 0 7 0;
#X connect 22 0 0 0;
#X connect 22 0 10 0;
