#N canvas 676 211 563 527 12;
#X listbox 65 318 6 0 0 0 - - - 0;
#X text 22 408 See also:;
#X msg 186 140 symbol P1;
#X msg 205 166 symbol d2;
#X msg 224 191 symbol m2;
#X msg 240 217 symbol M2;
#X msg 253 243 symbol A2;
#X listbox 169 326 6 0 0 0 - - - 0;
#X text 22 38 note.add;
#X text 22 88 Add an intervals to a note. Interval can be specified as argument \, or via the second (cold) inlet.;
#X msg 46 156 symbol C#4;
#X msg 63 183 symbol Db4;
#X obj 65 264 note.add;
#X obj 169 302 note.add P8;
#X text 22 478 Copyright 2025 Federico Ferri (see LICENSE.txt);
#X obj 23 437 musictheory-objects;
#X connect 2 0 12 1;
#X connect 3 0 12 1;
#X connect 4 0 12 1;
#X connect 5 0 12 1;
#X connect 6 0 12 1;
#X connect 10 0 12 0;
#X connect 11 0 12 0;
#X connect 12 0 0 0;
#X connect 12 0 13 0;
#X connect 13 0 7 0;
