#N canvas 670 213 563 581 12;
#X text 22 408 See also:;
#X obj 23 437 note.flat;
#X obj 23 461 note.sharp;
#X obj 23 485 note.natural;
#X obj 153 437 note.oct;
#X obj 153 461 note.pitch;
#X obj 283 437 note.add;
#X obj 283 509 note.to_oct 0;
#X obj 283 461 note.sub;
#X text 22 88 Convert note to/from MIDI number;
#X obj 65 254 note.to_midi;
#X floatatom 65 278 5 0 0 0 - - - 0;
#X listbox 65 325 20 0 0 0 - - - 0;
#X obj 283 485 note.diff;
#X msg 46 146 symbol C4;
#X msg 83 200 symbol C5;
#X msg 63 173 symbol Dbb4;
#X text 243 297 argument sets allowed accidentals:;
#X text 244 317 0: natural;
#X text 244 332 -1 \, -2 \, ...: flat \, double flat \, etc...;
#X text 244 347 1 \, 2 \, ...: sharp \, double sharp \, etc...;
#X obj 65 301 note.from_midi -2 -1 0;
#X text 22 38 note.from_midi \, note.to_midi;
#X text 22 548 Copyright 2025 Federico Ferri (see LICENSE.txt);
#X connect 10 0 11 0;
#X connect 11 0 21 0;
#X connect 14 0 10 0;
#X connect 15 0 10 0;
#X connect 16 0 10 0;
#X connect 21 0 12 0;
