#N canvas 764 213 563 523 12;
#X text 22 408 See also:;
#X text 22 478 Copyright 2025 Federico Ferri (see LICENSE.txt);
#X obj 23 437 musictheory-objects;
#X text 22 88 Store a sequence of notes with start time and duration;
#X obj 81 193 hradio 19 1 0 8 empty empty empty 0 -10 0 12 #fcfcfc #000000 #000000 0;
#X msg 274 303 reload;
#X obj 61 345 print NOTE;
#X msg 96 244 clear;
#X msg 81 216 play \$1;
#X msg 241 247 get 0 2;
#X msg 316 247 remove 0 2;
#X text 22 38 note.sequence;
#X obj 61 297 note.sequence;
#N canvas 709 202 540 448 playback 0;
#X obj 40 37 loadbang;
#X obj 233 140 note.sequence;
#X obj 233 305 else/out~;
#X obj 233 268 else/sfz~;
#X msg 242 244 open;
#X obj 46 141 tgl 40 0 empty empty PLAY 0 -10 0 12 #fcfcfc #000000 #000000 0 1;
#X obj 46 258 f;
#X obj 111 258 % 16;
#X obj 79 258 + 1;
#X obj 46 210 else/tempo 480;
#X msg 126 316 play \$1;
#X obj 233 212 else/makenote2 480;
#X obj 46 186 t f b;
#X msg 78 233 0;
#X msg 40 61 clear \, add C5 0 4 \, add Eb5 4 4 \, add G5 4 4 \, add G4 8 4 \, add Eb5 12 4 \, add G5 12 4;
#X obj 233 164 note.to_midi;
#X msg 233 188 \$1 127 \$3;
#X connect 0 0 14 0;
#X connect 1 0 15 0;
#X connect 3 0 2 0;
#X connect 3 1 2 1;
#X connect 4 0 3 0;
#X connect 5 0 12 0;
#X connect 6 0 8 0;
#X connect 6 0 10 0;
#X connect 7 0 6 1;
#X connect 8 0 7 0;
#X connect 9 0 6 0;
#X connect 10 0 1 0;
#X connect 11 0 3 0;
#X connect 12 0 9 0;
#X connect 12 1 13 0;
#X connect 13 0 6 1;
#X connect 14 0 1 0;
#X connect 15 0 16 0;
#X connect 16 0 11 0;
#X restore 390 337 pd playback;
#X msg 61 154 clear \, add C4 0 8 \, add Eb4 0 4 \, add G4 0 4 \, add F4 4 4 \, add Ab4 4 4;
#X obj 61 129 loadbang;
#X obj 149 345 print EVENTS;
#X msg 264 204 change Eb4 0 4 E4 0 4;
#X connect 4 0 8 0;
#X connect 5 0 12 0;
#X connect 7 0 12 0;
#X connect 8 0 12 0;
#X connect 9 0 12 0;
#X connect 10 0 12 0;
#X connect 12 0 6 0;
#X connect 12 1 16 0;
#X connect 14 0 12 0;
#X connect 15 0 14 0;
#X connect 17 0 12 0;
