#N canvas 670 213 563 581 12;
#X text 22 408 See also:;
#X listbox 203 288 6 0 0 0 - - - 0;
#X text 22 88 Add or remove alterations to a note;
#X listbox 293 288 6 0 0 0 - - - 0;
#X listbox 383 288 6 0 0 0 - - - 0;
#X text 22 38 pitch.flat \, pitch.sharp \, pitch.natural;
#X msg 46 156 symbol C#;
#X msg 63 183 symbol Db;
#X msg 83 210 symbol C;
#X obj 65 264 s \$0.pitch;
#X obj 203 240 r \$0.pitch;
#X obj 293 240 r \$0.pitch;
#X obj 383 240 r \$0.pitch;
#X obj 203 264 pitch.flat;
#X obj 293 264 pitch.sharp;
#X obj 383 264 pitch.natural;
#X obj 23 437 pitch.to_oct 0;
#X text 22 528 Copyright 2025 Federico Ferri (see LICENSE.txt);
#X connect 6 0 9 0;
#X connect 7 0 9 0;
#X connect 8 0 9 0;
#X connect 10 0 13 0;
#X connect 11 0 14 0;
#X connect 12 0 15 0;
#X connect 13 0 1 0;
#X connect 14 0 3 0;
#X connect 15 0 4 0;
