#N canvas 670 213 563 581 12;
#X text 22 408 See also:;
#X listbox 65 278 6 0 0 0 - - - 0;
#X obj 153 461 note.oct;
#X obj 153 485 note.pitch;
#X text 22 38 pitch.to_oct;
#X text 22 88 Convert the input pitch to a note in the specified octave;
#X msg 46 146 symbol C;
#X msg 67 171 symbol Dbb;
#X obj 65 254 pitch.to_oct 4;
#X obj 23 437 pitch.flat;
#X obj 23 461 pitch.sharp;
#X obj 23 485 pitch.natural;
#X obj 153 437 note.to_oct 0;
#X text 22 528 Copyright 2025 Federico Ferri (see LICENSE.txt);
#X connect 6 0 8 0;
#X connect 7 0 8 0;
#X connect 8 0 1 0;
