#N canvas 257 152 563 523 12;
#X text 22 408 See also:;
#X listbox 61 357 7 0 0 0 - - - 0;
#X text 22 478 Copyright 2025 Federico Ferri (see LICENSE.txt);
#X obj 23 437 musictheory-objects;
#X text 22 38 scale.identify;
#X text 22 88 Identify a scale from multiple notes or chords.;
#X obj 61 327 scale.identify;
#X msg 61 159 add_note C4;
#X msg 61 209 add_chord Dmin 0.8;
#X msg 61 184 add_note G4 0.5;
#X text 183 182 second (optional) arg is weight (default: 1);
#X msg 61 236 fade 0.8;
#X msg 61 260 reset;
#X listbox 156 357 20 0 0 0 - - - 0;
#X text 136 235 scale weight of all items added so far;
#X msg 422 284 add_chord Fmin;
#X msg 422 212 add_chord Cmaj;
#X msg 422 236 add_chord Emaj;
#X msg 422 260 add_chord Fmaj;
#X obj 422 308 t a;
#X connect 6 0 1 0;
#X connect 6 1 13 0;
#X connect 7 0 6 0;
#X connect 8 0 6 0;
#X connect 9 0 6 0;
#X connect 11 0 6 0;
#X connect 12 0 6 0;
#X connect 15 0 19 0;
#X connect 16 0 19 0;
#X connect 17 0 19 0;
#X connect 18 0 19 0;
#X connect 19 0 6 0;
