#N canvas 670 213 563 523 12;
#X text 22 408 See also:;
#X text 22 38 scale.harmonize;
#X text 22 88 Get the notes from a particular scale. Scale root and flavor can be set via creation arguments or via the second and third (cold) inlets.;
#X obj 61 227 scale.harmonize C natural_minor;
#X floatatom 61 186 5 0 0 0 - - - 0;
#X listbox 61 257 7 0 0 0 - - - 0;
#X msg 168 185 symbol C;
#X msg 275 185 symbol major;
#N canvas 1026 367 590 444 harmonize-chords 0;
#X obj 97 112 expr $f1 \; $f1+2 \; $f1+4;
#X obj 97 164 pack f f f;
#X obj 97 263 chord.identify;
#X listbox 97 307 20 0 0 0 - - - 0;
#X obj 167 219 scale.harmonize F major;
#X obj 97 219 list.map;
#X msg 96 48 1;
#X msg 136 48 2;
#X msg 176 48 3;
#X msg 216 48 4;
#X msg 256 48 5;
#X msg 296 48 6;
#X msg 336 48 7;
#X connect 0 0 1 0;
#X connect 0 1 1 1;
#X connect 0 2 1 2;
#X connect 1 0 5 0;
#X connect 2 0 3 0;
#X connect 4 0 5 1;
#X connect 5 0 2 0;
#X connect 5 1 4 0;
#X connect 6 0 0 0;
#X connect 7 0 0 0;
#X connect 8 0 0 0;
#X connect 9 0 0 0;
#X connect 10 0 0 0;
#X connect 11 0 0 0;
#X connect 12 0 0 0;
#X restore 346 310 pd harmonize-chords;
#X text 22 478 Copyright 2025 Federico Ferri (see LICENSE.txt);
#X obj 23 437 musictheory-objects;
#X connect 3 0 5 0;
#X connect 4 0 3 0;
#X connect 6 0 3 1;
#X connect 7 0 3 2;
