#N canvas 235 125 778 815 12;
#X declare -path ..;
#X obj 81 199 chord.notes;
#X msg 81 77 symbol Cmaj;
#X msg 81 102 symbol Fmaj;
#X msg 81 128 symbol Gmaj;
#X msg 192 120 symbol Fmin;
#X msg 309 118 symbol Emaj7;
#X obj 81 283 list split 3;
#X obj 121 313 list split 3;
#X obj 161 343 list split 3;
#X obj 81 375 else/display;
#X obj 121 405 else/display;
#X obj 161 435 else/display;
#X obj 99 660 else/keyboard 17 80 4 2 0 0 empty empty;
#X obj 99 566 scale.harmonize;
#X msg 113 468 set \$1 \$2;
#X msg 233 616 flush;
#X obj 81 431 t b a b;
#X obj 75 494 until;
#X obj 75 524 f;
#X obj 111 524 + 1;
#X obj 99 591 note.to_midi;
#X msg 99 617 on \$1;
#X msg 178 199 list F#3;
#X msg 123 494 -20;
#X msg 75 468 35;
#X msg 282 197 reset;
#X obj 80 44 declare -path ..;
#X obj 81 241 scale.identify2 C major;
#X msg 81 152 symbol G7;
#X connect 0 0 27 0;
#X connect 1 0 0 0;
#X connect 2 0 0 0;
#X connect 3 0 0 0;
#X connect 4 0 0 0;
#X connect 5 0 0 0;
#X connect 6 0 9 0;
#X connect 6 0 16 0;
#X connect 6 1 7 0;
#X connect 7 0 10 0;
#X connect 7 1 8 0;
#X connect 8 0 11 0;
#X connect 13 0 20 0;
#X connect 14 0 13 0;
#X connect 15 0 12 0;
#X connect 16 0 24 0;
#X connect 16 1 14 0;
#X connect 16 2 15 0;
#X connect 16 2 23 0;
#X connect 17 0 18 0;
#X connect 18 0 19 0;
#X connect 18 0 13 0;
#X connect 19 0 18 1;
#X connect 20 0 21 0;
#X connect 21 0 12 0;
#X connect 22 0 27 0;
#X connect 23 0 18 1;
#X connect 24 0 17 0;
#X connect 25 0 27 0;
#X connect 27 0 6 0;
#X connect 28 0 0 0;
