#N canvas 185 356 650 531 12;
#X declare -path ..;
#X obj 50 89 else/keyboard 17 80 4 2 0 0 empty empty;
#X obj 50 198 notein.to.list;
#X obj 50 174 unpack;
#N canvas 92 117 450 415 oddth 0;
#X obj 45 48 inlet;
#X obj 45 302 outlet;
#X obj 70 140 list-iter 2;
#X obj 45 79 t b a b;
#X obj 45 247 list;
#X obj 172 211 t a;
#X msg 70 171 \$1;
#X obj 70 211 list prepend;
#X connect 0 0 3 0;
#X connect 2 0 6 0;
#X connect 3 0 4 0;
#X connect 3 1 2 0;
#X connect 3 2 7 1;
#X connect 4 0 1 0;
#X connect 5 0 7 1;
#X connect 6 0 7 0;
#X connect 7 0 5 0;
#X connect 7 0 4 1;
#X restore 50 222 pd oddth;
#X obj 50 305 else/display;
#X obj 50 246 list.map;
#X obj 130 246 note.from_midi -1 0;
#X obj 130 270 list split 1;
#X obj 50 439 scale.identify;
#X obj 50 332 t l b;
#X msg 141 391 reset;
#X obj 50 367 list-drip;
#X msg 50 391 add_note \$1;
#X listbox 50 463 8 0 0 0 - - - 0;
#X listbox 145 463 20 0 0 0 - - - 0;
#X obj 49 38 declare -path ..;
#X connect 0 0 2 0;
#X connect 1 0 3 0;
#X connect 2 0 1 0;
#X connect 2 1 1 1;
#X connect 3 0 5 0;
#X connect 5 0 4 0;
#X connect 5 0 9 0;
#X connect 5 1 6 0;
#X connect 6 0 7 0;
#X connect 7 0 5 1;
#X connect 8 0 13 0;
#X connect 8 1 14 0;
#X connect 9 0 11 0;
#X connect 9 1 10 0;
#X connect 10 0 8 0;
#X connect 11 0 12 0;
#X connect 12 0 8 0;
