#N canvas 185 356 650 531 12;
#X declare -path ..;
#X obj 50 90 else/keyboard 17 80 4 2 0 0 empty empty;
#X obj 50 199 notein.to.list;
#X obj 50 175 unpack;
#N canvas 92 117 450 415 oddth 0;
#X obj 45 48 inlet;
#X obj 45 302 outlet;
#X obj 70 140 list-iter 2;
#X obj 45 79 t b a b;
#X obj 45 247 list;
#X obj 172 211 t a;
#X msg 70 171 \$1;
#X obj 70 211 list prepend;
#X connect 0 0 3 0;
#X connect 2 0 6 0;
#X connect 3 0 4 0;
#X connect 3 1 2 0;
#X connect 3 2 7 1;
#X connect 4 0 1 0;
#X connect 5 0 7 1;
#X connect 6 0 7 0;
#X connect 7 0 5 0;
#X connect 7 0 4 1;
#X restore 50 223 pd oddth;
#X obj 50 326 else/display;
#X obj 50 247 list.map;
#X obj 130 247 note.from_midi -1 0;
#X obj 50 366 chord.identify;
#X obj 50 390 else/display;
#X obj 130 271 list split 1;
#X obj 50 38 declare -path ..;
#X connect 0 0 2 0;
#X connect 1 0 3 0;
#X connect 2 0 1 0;
#X connect 2 1 1 1;
#X connect 3 0 5 0;
#X connect 5 0 4 0;
#X connect 5 0 7 0;
#X connect 5 1 6 0;
#X connect 6 0 9 0;
#X connect 7 0 8 0;
#X connect 9 0 5 1;
